<svg width="234" height="58" viewBox="0 0 234 58" fill="none" xmlns="http://www.w3.org/2000/svg">
<g clip-path="url(#clip0_422_6913)">
<path d="M135.3 53.6V54.8H133.9V45H135.4V49.1C135.8 48.2 136.8 47.7 137.7 47.8C139.4 47.8 140.7 49 140.7 51.4C140.7 53.8 139.3 55 137.6 55C136.6 54.9 135.8 54.4 135.3 53.6ZM139.1 51.3C139.1 49.5 138.5 48.5 137.3 48.5C136.1 48.5 135.4 49.7 135.4 51.3C135.4 52.9 136.3 54.2 137.3 54.2C138.4 54.2 139.1 53.1 139.1 51.3Z" fill="#491ABF"/>
<path d="M143.3 57.4L144.3 54.9L141.3 47.9H142.9L145 52.9L146.9 47.9H147.8L144.2 57.4H143.3Z" fill="#491ABF"/>
<path d="M154.3 50.4V54.8H152.7V45.2H158.7V45.9H154.3V49.6H158.3V50.3L154.3 50.4Z" fill="#491ABF"/>
<path d="M159.6 51.3C159.6 49.3 161.2 47.8 163.2 47.8C165.2 47.8 166.7 49.4 166.7 51.4C166.7 53.4 165.1 54.9 163.1 54.9C161.2 55 159.6 53.5 159.5 51.5C159.6 51.5 159.6 51.4 159.6 51.3ZM165.1 51.3C165.1 49.6 164.5 48.4 163.2 48.4C161.9 48.4 161.3 49.6 161.3 51.3C161.3 53 161.9 54.3 163.2 54.3C164.5 54.3 165.1 53.1 165.1 51.3Z" fill="#491ABF"/>
<path d="M170 54.8H168.5V47.9H169.9V49.4C170 49.1 170.1 48.9 170.3 48.7C170.6 48.2 171.2 47.9 171.8 47.9H172.2V49.1C171.9 49.1 171.6 49.1 171.3 49.1C170.6 49.1 169.9 49.4 169.9 50.9L170 54.8Z" fill="#491ABF"/>
<path d="M178.8 51.9H174.5L173.4 54.8H172.5L176.2 45.2H177.7L181.6 54.8H179.9L178.8 51.9ZM176.6 46.5L174.8 51.2H178.5L176.6 46.5Z" fill="#491ABF"/>
<path d="M182.9 44.9H184.4V54.7H182.9V44.9Z" fill="#491ABF"/>
<path d="M186.6 44.9H188.1V54.7H186.6V44.9Z" fill="#491ABF"/>
<path d="M189.7 51.9H191.2C191.1 53.1 192.1 54.2 193.3 54.3C193.4 54.3 193.5 54.3 193.6 54.3C194.9 54.3 195.9 53.7 195.9 52.6C195.9 51.5 195.2 51.1 193.9 50.8L192.8 50.5C191 50 190.2 49.3 190.2 47.9C190.2 46.2 191.8 45 193.7 45C195.7 45 197.1 45.9 197.3 47.7H195.8C195.8 46.6 194.9 45.7 193.8 45.7H193.7C192.7 45.6 191.7 46.3 191.6 47.4C191.6 48.2 192.1 48.7 193.3 49L194.6 49.3C196.3 49.7 197.4 50.4 197.4 52C197.4 54 195.6 54.9 193.7 54.9C191.4 54.9 189.9 53.9 189.7 51.9Z" fill="#491ABF"/>
<path d="M202.2 54.9C200.2 54.8 198.7 53.1 198.8 51.1C198.9 49.3 200.3 47.8 202.1 47.7C203.8 47.6 205.3 49 205.4 50.7C205.4 50.8 205.4 50.9 205.4 51V51.2H200.4C200.4 52.9 201.2 54.1 202.5 54.1C203.4 54.1 204.3 53.5 204.5 52.6H205.3C204.9 54.1 203.6 55 202.2 54.9ZM200.3 50.6H203.6C203.6 49.1 203.1 48.3 202 48.3C200.9 48.3 200.4 49.2 200.3 50.6Z" fill="#491ABF"/>
<path d="M206.5 51.3C206.4 49.4 207.9 47.8 209.8 47.7C209.9 47.7 209.9 47.7 210 47.7C211.5 47.6 212.8 48.6 213 50.1H211.6C211.5 49.1 211 48.4 210 48.4C208.8 48.4 208.2 49.5 208.2 51.3C208.2 53.1 208.9 54.2 210.2 54.2C211.2 54.2 212 53.6 212.2 52.6H213C212.8 54.1 211.5 55.1 210 54.9C208.1 54.9 206.6 53.5 206.5 51.6C206.5 51.5 206.5 51.4 206.5 51.3Z" fill="#491ABF"/>
<path d="M219.1 53.6C218.7 54.4 217.9 54.9 217 54.9C215.7 55 214.6 54 214.5 52.7C214.5 52.5 214.5 52.4 214.5 52.2V47.8H216V52.3C216 53.5 216.6 54.1 217.4 54.1C218.4 54.1 219.1 53.2 219.1 51.3V47.8H220.6V54.7H219.2L219.1 53.6Z" fill="#491ABF"/>
<path d="M224.3 54.8H222.8V47.9H224.2V49.4C224.3 49.1 224.4 48.9 224.6 48.7C224.9 48.2 225.5 47.9 226.1 47.9H226.5V49.1C226.2 49.1 225.9 49.1 225.6 49.1C224.9 49.1 224.2 49.4 224.2 50.9L224.3 54.8Z" fill="#491ABF"/>
<path d="M230.8 54.9C228.8 55 227.2 53.4 227.1 51.4C227 49.4 228.6 47.8 230.6 47.7C232.3 47.6 233.8 49 233.9 50.7C233.9 50.8 233.9 50.9 233.9 51V51.2H228.9C228.9 52.9 229.7 54.1 231 54.1C231.9 54.1 232.8 53.5 233 52.6H233.8C233.5 54.1 232.2 55 230.8 54.9ZM228.9 50.6H232.2C232.2 49.1 231.7 48.3 230.6 48.3C229.5 48.3 229 49.2 228.9 50.6Z" fill="#491ABF"/>
<path d="M73.7 17.7H80.1L85.5 38.5C85.5 38.6 85.6 38.7 85.7 38.7C85.8 38.7 85.9 38.7 85.9 38.5L91.3 17.7H97.7V39.7H94.6V19.2C94.6 19 94.5 19 94.4 19C94.3 19 94.1 19.1 94.1 19.3L88.7 39.8H82.5L77.1 19.3C77 19.1 76.9 19 76.8 19C76.7 19 76.6 19.1 76.6 19.2V39.8H73.5V17.7H73.7Z" fill="#491ABF"/>
<path d="M106.4 30.4L112.2 30.3V29.7C112.2 27.4 111 25.9 107.9 25.9C105.1 25.9 103.9 27.3 103.9 29H101C101.2 25.9 103.6 23.5 107.9 23.5C112.6 23.5 114.9 26 114.9 29.9V39.9H112.1V37.4C112.1 37.3 112.1 37.2 112 37.2C111.9 37.2 111.8 37.2 111.7 37.4C110.9 39 109.4 40.2 106.7 40.2C103 40.2 100.6 38 100.6 35C100.6 32.2 102.4 30.5 106.4 30.4ZM107.2 37.8C110.3 37.8 112.2 36.1 112.2 32.8V32.7L106.4 32.8C104.2 32.8 103.3 33.7 103.3 35.1C103.4 36.7 104.7 37.8 107.2 37.8Z" fill="#491ABF"/>
<path d="M115.9 23.8H118.7L123.3 38.1C123.3 38.3 123.5 38.4 123.6 38.3C123.8 38.3 123.9 38.2 123.9 38.1L128.5 23.8H131.3V24.4L125.7 41.6C124.7 44.6 123.1 45.6 119.7 45.6H116.8V43.1H119.1C120.6 43.1 121.4 43.3 121.7 43.3C122 43.3 122.3 43.1 122.4 42.8L123.2 40.5C123.3 40.3 123.3 40.1 123.2 40C123.1 39.9 123 39.8 122.8 39.8H120.9L115.9 24.5V23.8Z" fill="#491ABF"/>
<path d="M132.7 17.7H135.5V26.4C135.5 26.5 135.5 26.6 135.6 26.6C135.7 26.6 135.8 26.5 135.9 26.4C136.8 24.6 138.2 23.4 141.3 23.4C145.1 23.4 147.4 25.7 147.4 29.8V39.8H144.6V30.2C144.6 27.3 143.1 25.8 140.3 25.8C137.2 25.8 135.4 27.6 135.4 31.5V39.8H132.6L132.7 17.7Z" fill="#491ABF"/>
<path d="M157.5 23.4C162.5 23.4 165 26.9 165 30.8V32.6H152.3C152.3 35.5 154.6 37.8 157.4 37.8C157.5 37.8 157.6 37.8 157.8 37.8C160.7 37.8 161.8 36.5 162.4 34.7H165.3C164.7 37.1 162.7 40.2 157.8 40.2C152.9 40.2 149.4 37 149.4 31.8C149.4 26.6 152.6 23.4 157.5 23.4ZM162 30.2C162 27.6 160.8 25.8 157.6 25.8C155 25.6 152.6 27.6 152.4 30.2H162Z" fill="#491ABF"/>
<path d="M167.6 23.8H170.4V26C170.4 26.2 170.5 26.2 170.6 26.2C170.7 26.2 170.8 26.1 170.8 26C171.6 24.4 172.9 23.3 175.6 23.3C178.3 23.3 179.9 24.5 180.6 26.4C180.7 26.5 180.7 26.6 180.9 26.6C181.1 26.6 181.2 26.4 181.3 26.2C182.1 24.4 183.7 23.2 186.4 23.2C190.5 23.2 192.1 26.1 192.1 29.8V39.6H189.3V29.8C189.3 27 188.1 25.7 185.5 25.7C183.2 25.7 181.2 27.1 181.2 30.6V39.6H178.4V29.8C178.4 27 177.2 25.7 174.6 25.7C172.3 25.7 170.3 27.1 170.3 30.6V39.6H167.5L167.6 23.8Z" fill="#491ABF"/>
<path d="M28.6 57.2C44.3953 57.2 57.2 44.3953 57.2 28.6C57.2 12.8047 44.3953 0 28.6 0C12.8047 0 0 12.8047 0 28.6C0 44.3953 12.8047 57.2 28.6 57.2Z" fill="url(#paint0_linear_422_6913)"/>
<path d="M42.8001 17.7H38.6001L46.9001 40H51.1001L42.8001 17.7Z" fill="white"/>
<path d="M6.7998 40H8.2998L16.5998 17.8H15.0998L6.7998 40Z" fill="white"/>
<path d="M33.7999 17.8L28.6999 31.5L23.5999 17.7H19.3999L27.6999 40H31.8999L29.4999 33.5L35.2999 17.8H33.7999Z" fill="white"/>
</g>
<defs>
<linearGradient id="paint0_linear_422_6913" x1="12.5" y1="3.5" x2="45.5" y2="57" gradientUnits="userSpaceOnUse">
<stop stop-color="#452AB3"/>
<stop offset="1" stop-color="#D33956"/>
</linearGradient>
<clipPath id="clip0_422_6913">
<rect width="233.8" height="57.4" fill="white"/>
</clipPath>
</defs>
</svg>
